<?xml version="1.0" standalone="no"?>
<!DOCTYPE svg PUBLIC "-//W3C//DTD SVG 20010904//EN"
 "http://www.w3.org/TR/2001/REC-SVG-20010904/DTD/svg10.dtd">
<svg version="1.0" xmlns="http://www.w3.org/2000/svg"
 width="500.000000pt" height="500.000000pt" viewBox="0 0 500.000000 500.000000"
 preserveAspectRatio="xMidYMid meet">
<metadata>
Created by potrace 1.14, written by Peter Selinger 2001-2017
</metadata>
<g transform="translate(0.000000,500.000000) scale(0.100000,-0.100000)"
fill="#000000" stroke="none">
<path d="M1403 2593 c-34 -82 -65 -156 -69 -165 -5 -15 0 -18 35 -18 34 0 43
4 53 25 11 24 16 25 90 25 74 0 79 -1 90 -25 9 -21 18 -25 54 -25 l43 0 -61
148 c-80 196 -70 182 -126 182 l-48 0 -61 -147z m156 -45 c1 -5 -19 -8 -44 -8
-25 0 -45 4 -45 9 0 5 10 31 21 58 l22 48 23 -50 c12 -27 23 -53 23 -57z"/>
<path d="M1730 2575 l0 -165 35 0 35 0 0 112 c0 62 4 108 8 103 5 -6 28 -56
53 -112 40 -94 46 -103 70 -103 24 0 31 10 75 110 l49 110 3 -110 3 -110 39 0
40 0 0 165 0 165 -58 0 -58 0 -44 -100 c-25 -55 -48 -96 -51 -92 -4 4 -25 48
-47 97 l-39 90 -57 3 -56 3 0 -166z"/>
<path d="M2236 2581 c-36 -88 -66 -162 -66 -165 0 -3 18 -6 40 -6 33 0 42 4
52 25 11 24 16 25 90 25 74 0 79 -1 90 -25 9 -21 18 -25 54 -25 l42 0 -52 128
c-30 70 -60 144 -69 165 -15 36 -18 37 -65 37 l-49 0 -67 -159z m140 22 c11
-27 21 -51 22 -55 2 -5 -17 -8 -42 -8 -25 0 -46 3 -46 8 0 15 34 102 41 102 3
0 15 -21 25 -47z"/>
<path d="M2560 2700 l0 -40 88 0 87 0 -92 -86 c-87 -80 -93 -88 -93 -125 l0
-39 150 0 150 0 0 40 0 40 -92 0 -92 0 92 86 c86 80 92 88 92 125 l0 39 -145
0 -145 0 0 -40z"/>
<path d="M2909 2714 c-22 -23 -24 -33 -24 -133 0 -120 12 -157 54 -169 35 -9
199 -9 234 1 40 11 57 58 57 160 0 93 -13 142 -40 157 -10 6 -72 10 -138 10
-114 0 -119 -1 -143 -26z m225 -70 c18 -18 22 -104 6 -135 -9 -16 -22 -19 -78
-19 -91 0 -97 5 -97 85 0 48 4 68 15 75 26 16 136 12 154 -6z"/>
<path d="M3277 2733 c-2 -4 -5 -79 -6 -165 l-3 -158 41 0 40 0 3 118 3 117 75
-117 75 -118 58 0 57 0 0 165 0 165 -40 0 -39 0 -3 -117 -3 -116 -71 114 -71
114 -55 3 c-31 2 -58 -1 -61 -5z"/>
</g>
</svg>
